<mxfile host="app.diagrams.net" modified="2023-04-09T14:49:15.309Z" agent="Mozilla/5.0 (Windows NT 10.0; Win64; x64) AppleWebKit/537.36 (KHTML, like Gecko) Chrome/112.0.0.0 Safari/537.36" version="21.1.4" etag="-I0jQOdH3ac_XlahGPQr" type="github">
  <diagram name="Page-1" id="Tcnh6JspJQhXZ3XtVRZP">
    <mxGraphModel>
      <root>
        <mxCell id="0" />
        <mxCell id="1" parent="0" />
      </root>
    </mxGraphModel>
  </diagram>
</mxfile>
